<?xml version="1.0" encoding="UTF-8"?>
<svg id="Capa_2" data-name="Capa 2" xmlns="http://www.w3.org/2000/svg" viewBox="0 0 403.17 180.08">
  <defs>
    <style>
      .cls-1 {
        fill: #f1d3d1;
      }

      .cls-2 {
        fill: #f6d0cd;
      }

      .cls-3 {
        fill: #f3d3d1;
      }

      .cls-4 {
        fill: #f2d3d1;
      }

      .cls-5 {
        fill: #f4d2d0;
      }

      .cls-6 {
        fill: #d1a25b;
      }

      .cls-7 {
        fill: #d0a35c;
      }

      .cls-8 {
        fill: #b8773c;
      }

      .cls-9 {
        fill: #d1a35b;
      }

      .cls-10 {
        fill: #b6783e;
      }

      .cls-11 {
        fill: #aab282;
      }
    </style>
  </defs>
  <g id="Capa_1-2" data-name="Capa 1">
    <g>
      <path class="cls-2" d="M351.97,22.96c9.13-7.7,25.89-14.4,32.76-.27,6.3,12.96-5.64,23.81-17.77,25.28,3.62,4.3,9.02,7.1,10.53,12.96,3.4,13.22-5.49,22.26-18.8,19.79-7.16-1.32-10.82-8.37-15.72-12.76-.94,11.95-12.54,22.78-24.36,15.85-9.7-5.69-6.74-17.53-2.66-25.84-31.95,1.27-25.17-38.94,5-31.01-14.49-33.64,32.4-36.72,31.02-4Z"/>
      <path class="cls-7" d="M66.46,11.96c-10.45-1.17-25.02,0-36,0-.22,0-1.51.94-1.01,2,1.25,2.69,6.72,2.51,7.53,9.48,1.99,16.92-1.47,37.62-.08,54.96-.29,5.5-14.2,9.78-1.49,10.61,9.14.6,21.92.48,31.1-.1,51.84-3.23,50.86-71.22-.05-76.95ZM57.09,81.83l-.13-61.37c.25-3.52,6.73-2.86,9.44-2.43,10.77,1.71,15.72,19.19,16.54,28.45,1.45,16.28-3.58,44.03-25.85,35.35Z"/>
      <path class="cls-11" d="M281.46,168.96c-4.65-1.33,2.03-4.77,2.98-6.02,3.34-4.37,3.3-24.54,2.28-30.25-1.57-8.76-12.07-6.53-18.76-6.73v23.5c0,1.18,1.09,10.4,1.45,11.55,1.24,3.94,6.27,3.56,5.55,7.95h-29.5c-.35,0-1.74-1.53-1.5-2.49.27-1.1,6.12-2.84,6.94-8.07,1.53-9.75-1.04-22.74.08-32.88-14.64-2.92-.64-5.97-.15-6.69s-.06-4.36.36-6.14c3.64-15.79,23.48-20.52,36.78-14.25,12.43,5.86,3.61,21.84-5.53,14.53-3.21-2.57-11.07-16.99-14.05-4.08-3.1,13.43,9.33,12.99,18.95,11.94,2.62-.29,16.63-6.17,16.63-2.38v41c0,2.53,6.85,6.39,7,7.01.24.96-1.15,2.49-1.5,2.49-5.83,0-23.95,1.16-28,0Z"/>
      <path class="cls-11" d="M135.46,132.96c4.56,1.31-3.29,6.7-4.37,8.63-7.2,12.95,7.95,20.81-11.69,26.31-32.07,8.97-57.15-8.86-52.18-43.18,3.32-22.96,31.88-33.41,52.01-25.53,12.95,5.07,13.83,21.63,2.23,21.63s-5.86-14.17-12.75-17.1c-5.31-2.26-12.21-.72-16.29,3.2-13.16,12.64-8.66,54.02,11.04,56.04,2.19.22,6.36.47,8.1-.9,2.18-1.71,1.73-14.25,1.17-17.36-1.24-6.88-8.4-7.71-8.76-9.25-.23-.97,1.14-2.49,1.5-2.49,6.19,0,25.7-1.23,30,0Z"/>
      <path class="cls-9" d="M173.46,88.96c-.59-.17-1.72-1.59-1.5-2.49.27-1.1,6.12-2.84,6.94-8.07.89-5.67.61-20.91.1-26.99-.73-8.68-5.15-5.51-6.88-7.6-4.07-4.93,9.53-5.81,12.39-6.81,9.98-3.48,13.86-11.64,13.94,5.94,15.09-16.32,35.5-16.62,37.49,9.52.61,8.04-3.51,24.72,1.54,30.46,1.3,1.48,5.96,2.26,5.47,4.51-.92,1.44-1.95,1.4-3.45,1.56-6.15.68-19.98.86-26.06-.04-8.14-1.19.32-4.39,1.95-7.08,1.22-2.01,1.4-4.11,1.61-6.39.53-5.67.83-24.88-.25-29.82-2.13-9.71-16.64-3.14-18.76,3.81,1.21,9.26-3.58,22.94.53,31.42.47.97,10.26,8.06,4.94,8.06-6.19,0-25.71,1.23-30,0Z"/>
      <path class="cls-2" d="M46.96,137.95c16.67,1.72,16.45,24.93-2.45,21.96-2.28-.36-4.04-2.35-6.55-1.95.74,19.52-22.42,20.58-20,0-21.19,4.15-24.61-17.56-5.01-22.01-15.15-17.31,8.84-28.65,18.51-10.99,11.41-22.22,35.74-3.39,15.5,12.99Z"/>
      <path class="cls-9" d="M161.1,80.82c-1.88-3,1.88-28.58-2.4-38.1-6.3-14.01-35.16-13.25-43.76-2.28-4.26,5.44-2.84,13.53,5.43,12.5,8.31-1.03,6.47-14.01,13.23-14.72,7.51-.8,9.69,12.79,5.77,15.65-2.76,2.02-11.87,3.22-16.09,4.91-7.75,3.12-14.61,8.52-14.4,17.68.41,17.32,23.72,13.57,33.06,5.5,3.87,10.8,19.64,9.02,26.01,1.49.25-2.91-5.79-.94-6.85-2.63ZM140.96,74.46c0,3.61-8.39,6.45-11.06,2.82-5.57-7.55,2.99-17.6,11.06-18.32v15.5Z"/>
      <path class="cls-11" d="M360.91,161.52c-2.08-1.4-.28-25.34-1.39-30.61-3.31-15.59-25.14-16.9-36.7-9.59-10,6.32-6.92,19.66,3.13,15.12,5.79-2.62,3.23-17.9,13.78-12.75,2.9,1.41,4.34,11.76,3.13,13.17-.52.6-12.4,3.22-15.16,4.34-4.65,1.89-13.3,6.09-14.53,11.47-4.68,20.57,18.57,19.4,29.77,10.29,3.5,9.53,17.95,8.16,24.02,1.49.66-3.08-4.84-2.12-6.05-2.93ZM332.95,159.46c-7.39-3.64,2.27-18.11,10.01-16.49.98,5.92-.78,21.04-10.01,16.49Z"/>
      <path class="cls-11" d="M236.19,161.73c-3.74-3.72,2.24-26.97-3.4-36.1-7.17-11.61-31.33-11.06-38.83-.17-5.67,8.23,1.98,15.27,8.52,9.53,3.82-3.35,2.86-11.64,9.05-12.01,7.02-.41,7.93,12.38,5.44,14.5-1.39,1.18-11.64,2.69-15,4-9.25,3.59-17.84,10.97-12.78,21.75,2.89,6.17,10.24,6.48,16.18,5.64,3.42-.48,13.04-6.42,13.58-5.91.19.18-.25,2.66,2.02,4.5,4.43,3.6,11.52,2.64,16.38.39,11.19-5.17-.07-5.04-1.16-6.12ZM212.36,159.95c-1.45.14-4.15-.21-5.16-1.23-5.78-5.79,4.33-16.29,10.75-16.76-.39,5.44,2.21,17.19-5.59,17.99Z"/>
      <path class="cls-11" d="M138.96,168.96c-.71-3.49,2.47-3.8,4.27-6.23,3.69-5,4.33-27.51.59-32.13-1.65-2.04-7.12-2.26-5.86-5.13.64-1.47,19.55-6.56,22.57-8.48,4.25.08,1.42,7.46,2.92,9.97,5.31-5.39,11.39-13.27,19.88-8.87s4.31,17-4.62,14.64c-2.87-.76-6.18-5.83-9.09-5.56-2.12.2-6.23,4.18-6.63,6.32-.7,3.72-.59,21.98.04,25.91.87,5.46,6.32,4.34,5.94,9.56h-30Z"/>
      <path class="cls-6" d="M245.96,88.96c-.8-3.98,3.05-4.23,4.86-6.64,2.85-3.8,2.93-26.39,2.2-31.91-.79-5.99-8.61-6.57-8.05-8.93l23.65-9.39c.81-.5,2.35,1.14,2.35,1.38v45c0,3.91,7.84,7.32,8,8.01.22.97-1.14,2.49-1.5,2.49h-31.5Z"/>
      <path class="cls-7" d="M257.7,9.19c15.15-2.66,17.26,18.18,7.31,21.32-18.29,5.76-21.59-18.81-7.31-21.32Z"/>
      <path class="cls-5" d="M298.62,1.12c8.36-2.92,11.31,6.61,5.32,9.32-7.18,3.24-10.37-7.55-5.32-9.32Z"/>
      <path class="cls-3" d="M396.69,57.11c6.93-1.86,8.59,8.14,3.57,9.65-8.38,2.52-9.34-8.11-3.57-9.65Z"/>
      <path class="cls-3" d="M29.68,100.1c7.99-2.17,8.67,10.55-.2,8.88-4.06-.76-3.32-7.93.2-8.88Z"/>
      <path class="cls-4" d="M51.59,172.07c7.02-2.47,7.86,9.11.89,7.93-4.17-.71-3.63-6.97-.89-7.93Z"/>
      <path class="cls-1" d="M306.67,93.14c7.14-2.15,6.46,6.75,2.6,7.71-3.63.9-8.07-6.07-2.6-7.71Z"/>
      <path class="cls-8" d="M342.24,35.25c3.87-3.21,9.51-.64,9.81,4.19.25,4.07-5.42,15.25-9.54,15.46-4.97.26-18.36-8.96-14.63-14.5,4.31-6.39,8.92-1.1,11.46-1.62,1.74-.36,2-2.79,2.9-3.54Z"/>
      <path class="cls-10" d="M28.77,138.75c.61-.35.76-3.02,2.87-3.66,6.87-2.07,4.43,11.03,2.36,12.39-3.99,2.63-15.58-2.07-11.61-7.6,1.29-1.8,4.87-.28,6.37-1.13Z"/>
    </g>
  </g>
</svg>